<svg width="72" height="34" viewBox="0 0 72 34" fill="none" xmlns="http://www.w3.org/2000/svg">
<path d="M14.5762 12.4688V21H12.8242V12.4688H14.5762ZM17.2012 12.4688V13.8457H10.2402V12.4688H17.2012ZM16.8086 17.8945V17.7715C16.8086 17.3066 16.875 16.8789 17.0078 16.4883C17.1406 16.0938 17.334 15.752 17.5879 15.4629C17.8418 15.1738 18.1543 14.9492 18.5254 14.7891C18.8965 14.625 19.3223 14.543 19.8027 14.543C20.2832 14.543 20.7109 14.625 21.0859 14.7891C21.4609 14.9492 21.7754 15.1738 22.0293 15.4629C22.2871 15.752 22.4824 16.0938 22.6152 16.4883C22.748 16.8789 22.8145 17.3066 22.8145 17.7715V17.8945C22.8145 18.3555 22.748 18.7832 22.6152 19.1777C22.4824 19.5684 22.2871 19.9102 22.0293 20.2031C21.7754 20.4922 21.4629 20.7168 21.0918 20.877C20.7207 21.0371 20.2949 21.1172 19.8145 21.1172C19.334 21.1172 18.9062 21.0371 18.5312 20.877C18.1602 20.7168 17.8457 20.4922 17.5879 20.2031C17.334 19.9102 17.1406 19.5684 17.0078 19.1777C16.875 18.7832 16.8086 18.3555 16.8086 17.8945ZM18.4961 17.7715V17.8945C18.4961 18.1602 18.5195 18.4082 18.5664 18.6387C18.6133 18.8691 18.6875 19.0723 18.7891 19.248C18.8945 19.4199 19.0312 19.5547 19.1992 19.6523C19.3672 19.75 19.5723 19.7988 19.8145 19.7988C20.0488 19.7988 20.25 19.75 20.418 19.6523C20.5859 19.5547 20.7207 19.4199 20.8223 19.248C20.9238 19.0723 20.998 18.8691 21.0449 18.6387C21.0957 18.4082 21.1211 18.1602 21.1211 17.8945V17.7715C21.1211 17.5137 21.0957 17.2715 21.0449 17.0449C20.998 16.8145 20.9219 16.6113 20.8164 16.4355C20.7148 16.2559 20.5801 16.1152 20.4121 16.0137C20.2441 15.9121 20.041 15.8613 19.8027 15.8613C19.5645 15.8613 19.3613 15.9121 19.1934 16.0137C19.0293 16.1152 18.8945 16.2559 18.7891 16.4355C18.6875 16.6113 18.6133 16.8145 18.5664 17.0449C18.5195 17.2715 18.4961 17.5137 18.4961 17.7715ZM27.5957 19.6172V12H29.2949V21H27.7656L27.5957 19.6172ZM23.5879 17.9062V17.7832C23.5879 17.2988 23.6426 16.8594 23.752 16.4648C23.8613 16.0664 24.0215 15.7246 24.2324 15.4395C24.4434 15.1543 24.7031 14.9336 25.0117 14.7773C25.3203 14.6211 25.6719 14.543 26.0664 14.543C26.4375 14.543 26.7617 14.6211 27.0391 14.7773C27.3203 14.9336 27.5586 15.1562 27.7539 15.4453C27.9531 15.7305 28.1133 16.0684 28.2344 16.459C28.3555 16.8457 28.4434 17.2695 28.498 17.7305V18C28.4434 18.4414 28.3555 18.8516 28.2344 19.2305C28.1133 19.6094 27.9531 19.9414 27.7539 20.2266C27.5586 20.5078 27.3203 20.7266 27.0391 20.8828C26.7578 21.0391 26.4297 21.1172 26.0547 21.1172C25.6602 21.1172 25.3086 21.0371 25 20.877C24.6953 20.7168 24.4375 20.4922 24.2266 20.2031C24.0195 19.9141 23.8613 19.5742 23.752 19.1836C23.6426 18.793 23.5879 18.3672 23.5879 17.9062ZM25.2754 17.7832V17.9062C25.2754 18.168 25.2949 18.4121 25.334 18.6387C25.377 18.8652 25.4453 19.0664 25.5391 19.2422C25.6367 19.4141 25.7617 19.5488 25.9141 19.6465C26.0703 19.7402 26.2598 19.7871 26.4824 19.7871C26.7715 19.7871 27.0098 19.7227 27.1973 19.5938C27.3848 19.4609 27.5273 19.2793 27.625 19.0488C27.7266 18.8184 27.7852 18.5527 27.8008 18.252V17.4844C27.7891 17.2383 27.7539 17.0176 27.6953 16.8223C27.6406 16.623 27.5586 16.4531 27.4492 16.3125C27.3438 16.1719 27.2109 16.0625 27.0508 15.9844C26.8945 15.9062 26.709 15.8672 26.4941 15.8672C26.2754 15.8672 26.0879 15.918 25.9316 16.0195C25.7754 16.1172 25.6484 16.252 25.5508 16.4238C25.457 16.5957 25.3867 16.7988 25.3398 17.0332C25.2969 17.2637 25.2754 17.5137 25.2754 17.7832ZM30.3438 17.8945V17.7715C30.3438 17.3066 30.4102 16.8789 30.543 16.4883C30.6758 16.0938 30.8691 15.752 31.123 15.4629C31.377 15.1738 31.6895 14.9492 32.0605 14.7891C32.4316 14.625 32.8574 14.543 33.3379 14.543C33.8184 14.543 34.2461 14.625 34.6211 14.7891C34.9961 14.9492 35.3105 15.1738 35.5645 15.4629C35.8223 15.752 36.0176 16.0938 36.1504 16.4883C36.2832 16.8789 36.3496 17.3066 36.3496 17.7715V17.8945C36.3496 18.3555 36.2832 18.7832 36.1504 19.1777C36.0176 19.5684 35.8223 19.9102 35.5645 20.2031C35.3105 20.4922 34.998 20.7168 34.627 20.877C34.2559 21.0371 33.8301 21.1172 33.3496 21.1172C32.8691 21.1172 32.4414 21.0371 32.0664 20.877C31.6953 20.7168 31.3809 20.4922 31.123 20.2031C30.8691 19.9102 30.6758 19.5684 30.543 19.1777C30.4102 18.7832 30.3438 18.3555 30.3438 17.8945ZM32.0312 17.7715V17.8945C32.0312 18.1602 32.0547 18.4082 32.1016 18.6387C32.1484 18.8691 32.2227 19.0723 32.3242 19.248C32.4297 19.4199 32.5664 19.5547 32.7344 19.6523C32.9023 19.75 33.1074 19.7988 33.3496 19.7988C33.584 19.7988 33.7852 19.75 33.9531 19.6523C34.1211 19.5547 34.2559 19.4199 34.3574 19.248C34.459 19.0723 34.5332 18.8691 34.5801 18.6387C34.6309 18.4082 34.6562 18.1602 34.6562 17.8945V17.7715C34.6562 17.5137 34.6309 17.2715 34.5801 17.0449C34.5332 16.8145 34.457 16.6113 34.3516 16.4355C34.25 16.2559 34.1152 16.1152 33.9473 16.0137C33.7793 15.9121 33.5762 15.8613 33.3379 15.8613C33.0996 15.8613 32.8965 15.9121 32.7285 16.0137C32.5645 16.1152 32.4297 16.2559 32.3242 16.4355C32.2227 16.6113 32.1484 16.8145 32.1016 17.0449C32.0547 17.2715 32.0312 17.5137 32.0312 17.7715ZM43.9492 13.9277L41.6289 21H39.7598L42.9297 12.4688H44.1191L43.9492 13.9277ZM45.877 21L43.5508 13.9277L43.3633 12.4688H44.5645L47.752 21H45.877ZM45.7715 17.8242V19.2012H41.2656V17.8242H45.7715ZM49.9375 15.8789V23.4375H48.25V14.6602H49.8145L49.9375 15.8789ZM53.9512 17.7598V17.8828C53.9512 18.3438 53.8965 18.7715 53.7871 19.166C53.6816 19.5605 53.5254 19.9043 53.3184 20.1973C53.1113 20.4863 52.8535 20.7129 52.5449 20.877C52.2402 21.0371 51.8887 21.1172 51.4902 21.1172C51.1035 21.1172 50.7676 21.0391 50.4824 20.8828C50.1973 20.7266 49.957 20.5078 49.7617 20.2266C49.5703 19.9414 49.416 19.6113 49.2988 19.2363C49.1816 18.8613 49.0918 18.459 49.0293 18.0293V17.707C49.0918 17.2461 49.1816 16.8242 49.2988 16.4414C49.416 16.0547 49.5703 15.7207 49.7617 15.4395C49.957 15.1543 50.1953 14.9336 50.4766 14.7773C50.7617 14.6211 51.0957 14.543 51.4785 14.543C51.8809 14.543 52.2344 14.6191 52.5391 14.7715C52.8477 14.9238 53.1055 15.1426 53.3125 15.4277C53.5234 15.7129 53.6816 16.0527 53.7871 16.4473C53.8965 16.8418 53.9512 17.2793 53.9512 17.7598ZM52.2578 17.8828V17.7598C52.2578 17.4902 52.2344 17.2422 52.1875 17.0156C52.1445 16.7852 52.0742 16.584 51.9766 16.4121C51.8828 16.2402 51.7578 16.1074 51.6016 16.0137C51.4492 15.916 51.2637 15.8672 51.0449 15.8672C50.8145 15.8672 50.6172 15.9043 50.4531 15.9785C50.293 16.0527 50.1621 16.1602 50.0605 16.3008C49.959 16.4414 49.8828 16.6094 49.832 16.8047C49.7812 17 49.75 17.2207 49.7383 17.4668V18.2812C49.7578 18.5703 49.8125 18.8301 49.9023 19.0605C49.9922 19.2871 50.1309 19.4668 50.3184 19.5996C50.5059 19.7324 50.752 19.7988 51.0566 19.7988C51.2793 19.7988 51.4668 19.75 51.6191 19.6523C51.7715 19.5508 51.8945 19.4121 51.9883 19.2363C52.0859 19.0605 52.1543 18.8574 52.1934 18.627C52.2363 18.3965 52.2578 18.1484 52.2578 17.8828ZM56.6875 15.8789V23.4375H55V14.6602H56.5645L56.6875 15.8789ZM60.7012 17.7598V17.8828C60.7012 18.3438 60.6465 18.7715 60.5371 19.166C60.4316 19.5605 60.2754 19.9043 60.0684 20.1973C59.8613 20.4863 59.6035 20.7129 59.2949 20.877C58.9902 21.0371 58.6387 21.1172 58.2402 21.1172C57.8535 21.1172 57.5176 21.0391 57.2324 20.8828C56.9473 20.7266 56.707 20.5078 56.5117 20.2266C56.3203 19.9414 56.166 19.6113 56.0488 19.2363C55.9316 18.8613 55.8418 18.459 55.7793 18.0293V17.707C55.8418 17.2461 55.9316 16.8242 56.0488 16.4414C56.166 16.0547 56.3203 15.7207 56.5117 15.4395C56.707 15.1543 56.9453 14.9336 57.2266 14.7773C57.5117 14.6211 57.8457 14.543 58.2285 14.543C58.6309 14.543 58.9844 14.6191 59.2891 14.7715C59.5977 14.9238 59.8555 15.1426 60.0625 15.4277C60.2734 15.7129 60.4316 16.0527 60.5371 16.4473C60.6465 16.8418 60.7012 17.2793 60.7012 17.7598ZM59.0078 17.8828V17.7598C59.0078 17.4902 58.9844 17.2422 58.9375 17.0156C58.8945 16.7852 58.8242 16.584 58.7266 16.4121C58.6328 16.2402 58.5078 16.1074 58.3516 16.0137C58.1992 15.916 58.0137 15.8672 57.7949 15.8672C57.5645 15.8672 57.3672 15.9043 57.2031 15.9785C57.043 16.0527 56.9121 16.1602 56.8105 16.3008C56.709 16.4414 56.6328 16.6094 56.582 16.8047C56.5312 17 56.5 17.2207 56.4883 17.4668V18.2812C56.5078 18.5703 56.5625 18.8301 56.6523 19.0605C56.7422 19.2871 56.8809 19.4668 57.0684 19.5996C57.2559 19.7324 57.502 19.7988 57.8066 19.7988C58.0293 19.7988 58.2168 19.75 58.3691 19.6523C58.5215 19.5508 58.6445 19.4121 58.7383 19.2363C58.8359 19.0605 58.9043 18.8574 58.9434 18.627C58.9863 18.3965 59.0078 18.1484 59.0078 17.8828Z" fill="#DC143C"/>
</svg>
