<svg width="898" height="897" viewBox="0 0 898 897" fill="none" xmlns="http://www.w3.org/2000/svg">
<path d="M449 0C567.826 0 681.784 47.2032 765.806 131.226C849.829 215.248 897.032 329.207 897.032 448.032C897.032 566.857 849.829 680.816 765.806 764.838C681.784 848.861 567.826 896.064 449 896.064C330.175 896.064 216.216 848.861 132.194 764.838C48.1712 680.816 0.968018 566.857 0.968018 448.032C0.968018 329.207 48.1712 215.248 132.194 131.226C216.216 47.2032 330.175 0 449 0ZM516.2 275.072C549.48 275.072 576.488 251.968 576.488 217.728C576.488 183.488 549.416 160.384 516.2 160.384C482.92 160.384 456.04 183.488 456.04 217.728C456.04 251.968 482.92 275.072 516.2 275.072ZM527.912 635.2C527.912 628.352 530.28 610.56 528.936 600.448L476.328 660.992C465.448 672.448 451.816 680.384 445.416 678.272C442.513 677.203 440.086 675.134 438.572 672.435C437.059 669.737 436.558 666.587 437.16 663.552L524.84 386.56C532.008 351.424 512.296 319.36 470.504 315.264C426.408 315.264 361.512 360 322.024 416.768C322.024 423.552 320.744 440.448 322.088 450.56L374.632 389.952C385.512 378.624 398.184 370.624 404.584 372.8C407.737 373.932 410.321 376.255 411.781 379.27C413.241 382.285 413.46 385.753 412.392 388.928L325.48 664.576C315.432 696.832 334.44 728.448 380.52 735.616C448.36 735.616 488.424 691.968 527.976 635.2H527.912Z" fill="#4C95F7"/>
</svg>
