<svg width="26" height="26" viewBox="0 0 26 26" fill="none" xmlns="http://www.w3.org/2000/svg">
<path d="M15.2286 25.3209C14.3619 25.5685 13.3714 25.6923 12.381 25.6923C5.57146 25.6923 6.10352e-05 20.1209 6.10352e-05 13.3115C6.10352e-05 6.50196 5.57146 0.930557 12.381 0.930557C13.9905 0.930557 15.6 1.30198 17.0857 1.79722L15.1048 3.77816C14.2381 3.53055 13.3714 3.40674 12.381 3.40674C6.93336 3.40674 2.47624 7.86386 2.47624 13.3115C2.47624 18.759 6.93336 23.2162 12.381 23.2162C12.8762 23.2162 13.4952 23.2162 13.9905 23.0924C14.2381 23.959 14.7333 24.7019 15.2286 25.3209ZM7.30479 10.9591L5.57146 12.6924L11.1429 18.2638L23.5238 5.88291L21.7904 4.14959L11.1429 14.7972L7.30479 10.9591ZM19.8095 15.7876V19.5019H16.0952V21.9781H19.8095V25.6923H22.2857V21.9781H25.9999V19.5019H22.2857V15.7876H19.8095Z" fill="#DC143C"/>
</svg>
